<?xml version="1.0" standalone="no"?>
<!DOCTYPE svg PUBLIC "-//W3C//DTD SVG 20010904//EN"
 "http://www.w3.org/TR/2001/REC-SVG-20010904/DTD/svg10.dtd">
<svg version="1.0" xmlns="http://www.w3.org/2000/svg"
 width="512.000000pt" height="512.000000pt" viewBox="0 0 512.000000 512.000000"
 preserveAspectRatio="xMidYMid meet">
<metadata>
Created by potrace 1.11, written by Peter Selinger 2001-2013
</metadata>
<g transform="translate(0.000000,512.000000) scale(0.100000,-0.100000)"
fill="#000000" stroke="none">
<path d="M1435 3988 c-643 -533 -1182 -979 -1197 -991 l-28 -22 -35 -404 -36
-403 70 -76 c38 -43 98 -105 133 -139 l63 -63 120 102 120 101 5 -819 c5 -781
6 -821 24 -849 30 -48 59 -76 98 -96 36 -18 86 -19 1762 -19 1043 0 1734 4
1749 9 39 15 96 70 120 115 20 40 21 63 38 761 10 396 19 757 21 802 l3 82
118 -105 c65 -58 122 -104 127 -102 4 2 63 70 130 152 111 137 120 152 114
180 -3 17 -44 198 -90 401 -69 303 -89 374 -107 391 -76 72 -2134 1951 -2142
1955 -6 3 -536 -430 -1180 -963z m1915 -913 c393 -351 781 -697 862 -769 l147
-131 0 -120 c0 -66 -8 -444 -18 -840 -20 -782 -18 -767 -76 -793 -20 -9 -430
-12 -1731 -12 -1863 0 -1748 -4 -1773 57 -8 21 -11 253 -9 873 l3 844 925 778
c789 662 927 775 940 764 8 -8 337 -301 730 -651z m-2610 34 c105 -37 205
-123 254 -218 l23 -45 -101 -86 c-139 -118 -579 -485 -593 -493 -6 -4 -19 -4
-28 -1 -15 6 -16 21 -11 148 12 267 28 481 37 498 5 10 67 65 137 123 l127
105 50 -6 c28 -3 75 -15 105 -25z"/>
<path d="M2809 2101 l-29 -29 0 -524 0 -524 31 -30 30 -29 504 -3 c430 -2 509
0 540 12 65 28 65 28 65 563 0 297 -4 492 -10 515 -6 20 -22 46 -37 58 -25 20
-37 20 -545 20 l-520 0 -29 -29z m773 -108 c16 -41 13 -142 -6 -187 -60 -142
-242 -234 -413 -207 -84 13 -176 58 -228 111 l-39 40 -4 135 -4 135 341 0 341
0 12 -27z"/>
<path d="M1283 1783 c4 -76 10 -414 13 -750 l7 -613 518 0 519 0 2 750 3 750
-534 0 -534 0 6 -137z m837 -531 c27 -33 25 -64 -6 -101 -32 -38 -78 -48 -127
-27 -34 14 -37 18 -37 54 0 49 23 79 74 96 47 16 70 11 96 -22z"/>
</g>
</svg>
